<?xml version="1.0" standalone="no"?>
<!DOCTYPE svg PUBLIC "-//W3C//DTD SVG 20010904//EN"
 "http://www.w3.org/TR/2001/REC-SVG-20010904/DTD/svg10.dtd">
<svg version="1.0" xmlns="http://www.w3.org/2000/svg"
 width="2864.000000pt" height="2116.000000pt" viewBox="0 0 2864.000000 2116.000000"
 preserveAspectRatio="xMidYMid meet">

<g transform="translate(0.000000,2116.000000) scale(0.100000,-0.100000)"
fill="#000000" stroke="none">
<path d="M11436 18823 c-276 -59 -461 -251 -543 -563 -31 -117 -43 -369 -23
-502 48 -330 225 -551 500 -625 99 -27 310 -24 413 5 97 28 195 75 246 119 34
29 40 40 45 86 8 66 -4 121 -27 125 -9 2 -48 -17 -85 -42 -119 -79 -231 -116
-354 -116 -245 0 -405 128 -479 382 -33 113 -38 359 -10 492 26 128 83 248
152 321 162 171 438 180 677 21 38 -25 76 -46 85 -46 24 0 40 54 35 120 -5 70
-30 103 -113 149 -142 81 -352 110 -519 74z"/>
<path d="M12755 18383 c-227 -30 -396 -186 -462 -423 -25 -93 -25 -358 1 -450
54 -195 166 -318 340 -373 60 -18 93 -22 211 -22 125 1 148 4 213 27 182 66
303 200 358 399 26 91 26 357 0 448 -60 216 -197 347 -402 386 -70 14 -188 17
-259 8z m249 -197 c141 -59 209 -200 209 -436 1 -285 -111 -441 -326 -457
-231 -17 -356 100 -389 362 -33 272 67 490 249 541 62 18 205 12 257 -10z"/>
<path d="M14251 18374 c-79 -21 -158 -67 -234 -135 l-67 -61 0 84 c0 46 -4 90
-9 97 -12 19 -130 28 -160 12 l-21 -12 0 -840 0 -839 26 -10 c14 -6 49 -10 79
-10 30 0 65 4 79 10 l26 10 0 300 c0 165 3 300 6 300 3 0 31 -22 62 -48 103
-88 186 -122 297 -122 228 0 407 150 470 395 37 143 37 374 0 520 -22 85 -68
175 -120 232 -100 112 -277 159 -434 117z m160 -189 c57 -20 122 -85 150 -149
66 -155 64 -411 -6 -564 -53 -115 -128 -166 -245 -167 -99 0 -150 25 -257 128
l-83 80 0 231 0 232 50 56 c127 142 266 197 391 153z"/>
<path d="M15028 18370 c-10 -6 -18 -22 -18 -35 0 -30 425 -1172 444 -1194 13
-14 4 -41 -70 -226 -47 -117 -82 -217 -78 -227 11 -36 180 -37 214 -1 19 19
78 177 404 1083 108 300 196 556 196 568 0 12 -9 26 -19 32 -28 14 -154 13
-174 -3 -11 -7 -80 -194 -178 -482 -87 -259 -162 -477 -165 -485 -5 -13 -6
-13 -14 0 -4 8 -83 226 -174 485 -92 258 -171 474 -177 480 -14 14 -170 18
-191 5z"/>
<path d="M13350 16104 c-19 -2 -84 -9 -145 -15 -162 -16 -427 -64 -613 -110
-1230 -305 -2291 -1063 -2969 -2119 -415 -647 -662 -1357 -750 -2150 -24 -222
-24 -734 0 -960 147 -1347 785 -2522 1821 -3354 285 -229 522 -381 859 -550
370 -185 577 -265 931 -356 479 -124 672 -150 1162 -157 510 -7 726 11 1114
93 953 204 1812 677 2492 1373 795 813 1261 1827 1380 3001 19 187 16 717 -5
910 -100 909 -411 1712 -942 2425 -275 371 -649 745 -1020 1020 -603 449
-1337 766 -2050 885 -310 52 -440 62 -850 65 -209 2 -396 1 -415 -1z m875
-494 c66 -6 185 -22 265 -36 1060 -181 2029 -752 2705 -1594 878 -1093 1184
-2537 824 -3890 -142 -535 -404 -1079 -725 -1505 -140 -187 -445 -514 -650
-696 -681 -608 -1653 -1014 -2554 -1069 -293 -18 -690 -9 -915 21 -657 86
-1314 334 -1865 702 -460 308 -879 720 -1195 1177 -780 1128 -989 2578 -558
3879 97 294 248 622 415 902 183 306 370 541 658 830 249 251 460 423 735 602
595 387 1354 645 2015 687 175 10 678 5 845 -10z"/>
<path d="M12320 13435 c-98 -56 -135 -89 -189 -170 -62 -93 -70 -131 -77 -364
-2 -102 -7 -219 -10 -258 l-6 -73 -77 0 c-120 0 -329 -19 -395 -35 -135 -35
-198 -82 -285 -215 l-55 -85 -4 -1020 c-5 -1083 0 -1234 39 -1362 19 -60 30
-77 98 -144 117 -116 201 -139 522 -139 l167 0 5 -447 c3 -286 9 -464 16 -493
25 -95 142 -229 247 -281 l61 -30 334 -9 c426 -12 1587 -12 2052 0 l358 8 64
31 c85 39 167 118 205 195 42 85 49 182 50 644 l0 382 108 0 c59 1 177 5 263
9 133 7 164 12 205 31 67 32 173 142 217 226 l37 68 0 1056 c0 580 -5 1107
-10 1170 -11 136 -41 209 -120 290 -99 102 -222 137 -511 147 l-187 6 -5 266
c-6 287 -14 345 -60 424 -39 67 -132 145 -192 162 -107 32 -263 36 -1525 41
l-1275 5 -65 -36z m2375 -304 c198 -5 368 -12 377 -16 11 -4 19 -25 25 -63 12
-83 9 -1268 -3 -1317 -9 -37 -13 -41 -54 -48 -71 -12 -2199 -20 -2415 -9 -201
10 -219 14 -230 40 -12 30 -21 675 -15 1025 7 330 8 339 29 360 20 21 33 22
229 28 328 9 1661 9 2057 0z m333 -3117 c81 -12 77 26 77 -684 0 -452 -4 -632
-12 -651 -9 -20 -22 -28 -50 -33 -21 -4 -535 -10 -1143 -12 -1082 -5 -1433 1
-1478 25 -12 6 -25 24 -29 39 -5 15 -8 302 -8 637 0 658 -1 645 53 667 15 6
90 14 167 18 159 9 2357 3 2423 -6z"/>
<path d="M12750 9595 l0 -155 1005 0 1005 0 0 155 0 155 -1005 0 -1005 0 0
-155z"/>
<path d="M12750 9015 l0 -165 1005 0 1005 0 0 165 0 165 -1005 0 -1005 0 0
-165z"/>
<path d="M12231 5425 c-151 -34 -266 -117 -324 -234 -31 -63 -32 -70 -32 -191
0 -122 1 -127 33 -192 23 -48 52 -85 104 -133 62 -57 98 -79 282 -169 185 -91
218 -111 263 -158 73 -77 89 -150 58 -254 -34 -114 -140 -183 -295 -192 -113
-6 -221 21 -358 90 -97 49 -103 51 -120 35 -23 -24 -24 -142 0 -178 20 -32
120 -81 223 -111 105 -29 315 -32 415 -5 186 50 311 164 362 331 17 56 20 86
16 167 -6 129 -39 200 -134 288 -56 53 -97 77 -279 167 -296 146 -349 197
-349 334 0 112 54 181 170 216 105 31 215 14 362 -58 56 -27 108 -48 116 -45
27 10 35 117 13 170 -40 94 -341 164 -526 122z"/>
<path d="M13233 5280 c-22 -9 -23 -13 -23 -160 l0 -150 -89 0 c-107 0 -116 -7
-116 -90 0 -83 9 -90 116 -90 l89 0 0 -382 c0 -422 7 -485 58 -567 68 -110
226 -157 396 -117 83 20 101 41 101 121 0 35 -5 69 -11 75 -7 7 -27 4 -69 -10
-99 -34 -184 -21 -221 35 -37 56 -44 136 -44 498 l0 347 159 0 c185 0 186 0
186 90 0 90 -1 90 -186 90 l-159 0 0 150 0 150 -26 10 c-31 12 -131 12 -161 0z"/>
<path d="M14310 4971 c-104 -22 -228 -78 -258 -116 -35 -45 -27 -165 12 -165
7 0 59 24 117 53 149 76 273 96 387 62 104 -31 152 -115 152 -265 l0 -77 -172
-6 c-246 -7 -371 -44 -474 -139 -114 -105 -136 -297 -51 -439 60 -100 167
-156 317 -166 134 -9 246 28 358 116 l52 41 0 -64 c0 -77 10 -86 92 -86 96 0
89 -41 86 505 -3 473 -3 481 -26 536 -30 74 -90 142 -155 173 -113 56 -280 70
-437 37z m410 -795 l0 -124 -63 -59 c-77 -72 -142 -104 -222 -110 -79 -7 -137
10 -185 54 -59 52 -77 143 -45 220 43 104 142 141 378 142 l137 1 0 -124z"/>
<path d="M15764 4980 c-53 -17 -126 -73 -184 -142 l-55 -66 -3 92 c-3 108 -9
116 -95 116 -107 0 -97 67 -97 -631 l0 -609 26 -10 c14 -6 49 -10 79 -10 30 0
65 4 79 10 l26 10 0 396 0 396 51 74 c85 123 165 184 241 184 17 0 58 -7 89
-16 86 -24 89 -21 89 86 l0 91 -37 16 c-45 19 -165 26 -209 13z"/>
</g>
</svg>
